<svg width="20" height="15" viewBox="0 0 20 15" fill="none" xmlns="http://www.w3.org/2000/svg">
<path d="M8.08586 2.44015C8.51299 2.01301 8.51299 1.32049 8.08586 0.89335C7.65872 0.466214 6.9662 0.466214 6.53906 0.89335L0.705728 6.72668C0.49216 6.94025 0.385376 7.22017 0.385376 7.50008C0.385376 7.64838 0.414891 7.78979 0.468368 7.91875C0.521743 8.04775 0.600863 8.16861 0.705728 8.27348L6.53906 14.1068C6.9662 14.5339 7.65872 14.5339 8.08586 14.1068C8.51299 13.6797 8.51299 12.9872 8.08586 12.56L4.11967 8.59383H18.25C18.854 8.59383 19.3437 8.10414 19.3437 7.50008C19.3437 6.89602 18.854 6.40633 18.25 6.40633H4.11967L8.08586 2.44015Z" fill="#2E0F46"/>
</svg>
