<svg width="50" height="45" viewBox="0 0 50 45" fill="none" xmlns="http://www.w3.org/2000/svg">
<path d="M24.707 33.8027C24.4107 34.5263 23.8996 35.163 23.2294 35.6435C22.5592 36.124 21.7554 36.43 20.9055 36.5282C20.0556 36.6264 19.1921 36.513 18.4087 36.2004C17.6254 35.8878 16.9523 35.3879 16.4625 34.7551C15.9727 34.1223 15.685 33.3808 15.6307 32.6112C15.5764 31.8415 15.7575 31.0732 16.1544 30.3897C16.5513 29.7062 17.1488 29.1337 17.8818 28.7345C18.6149 28.3352 19.4556 28.1244 20.3125 28.125H42.1875" stroke="white" stroke-width="2" stroke-linecap="round" stroke-linejoin="round"/>
<path d="M30.957 11.1973C30.6607 10.4737 30.1496 9.837 29.4794 9.35649C28.8092 8.87598 28.0054 8.57001 27.1555 8.47183C26.3056 8.37365 25.4421 8.48702 24.6587 8.79962C23.8754 9.11221 23.2023 9.61208 22.7125 10.2449C22.2227 10.8777 21.935 11.6192 21.8807 12.3888C21.8264 13.1585 22.0075 13.9268 22.4044 14.6103C22.8013 15.2938 23.3988 15.8663 24.1318 16.2655C24.8649 16.6648 25.7056 16.8756 26.5625 16.875H45.3125" stroke="white" stroke-width="2" stroke-linecap="round" stroke-linejoin="round"/>
<path d="M13.7695 16.8223C13.4732 16.0987 12.9621 15.462 12.2919 14.9815C11.6217 14.501 10.8179 14.195 9.96802 14.0968C9.11811 13.9986 8.25456 14.112 7.47123 14.4246C6.6879 14.7372 6.01475 15.2371 5.52497 15.8699C5.03519 16.5027 4.74751 17.2442 4.69319 18.0138C4.63888 18.7835 4.82001 19.5518 5.2169 20.2353C5.61379 20.9188 6.21125 21.4913 6.94434 21.8905C7.67744 22.2898 8.51811 22.5006 9.375 22.5H43.75" stroke="white" stroke-width="2" stroke-linecap="round" stroke-linejoin="round"/>
</svg>
